<?xml version="1.0" standalone="no"?>
<!DOCTYPE svg PUBLIC "-//W3C//DTD SVG 20010904//EN"
 "http://www.w3.org/TR/2001/REC-SVG-20010904/DTD/svg10.dtd">
<svg version="1.0" xmlns="http://www.w3.org/2000/svg"
 width="512.000000pt" height="512.000000pt" viewBox="0 0 512.000000 512.000000"
 preserveAspectRatio="xMidYMid meet">

<g transform="translate(0.000000,512.000000) scale(0.100000,-0.100000)"
fill="#000000" stroke="none">
<path d="M3228 5043 l-3 -78 -70 -12 c-132 -24 -282 -86 -395 -162 l-45 -31
-52 52 -53 52 -75 -74 c-41 -41 -75 -79 -75 -84 0 -6 21 -32 46 -57 l47 -48
-35 -48 c-68 -96 -138 -244 -153 -326 -4 -21 -11 -40 -15 -42 -5 -3 -57 -10
-117 -15 -132 -13 -269 -48 -386 -100 -89 -39 -266 -150 -301 -189 l-20 -22
-61 61 -61 60 -79 -80 -80 -80 61 -61 61 -61 -45 -66 c-60 -90 -128 -230 -157
-327 -26 -84 -55 -237 -55 -286 l0 -29 -105 0 -105 0 0 -115 0 -115 109 0
c123 0 111 9 131 -94 7 -32 21 -83 31 -114 10 -30 19 -59 19 -64 0 -4 -104 -8
-230 -8 -190 0 -236 -3 -261 -16 -53 -27 -59 -58 -59 -319 0 -322 6 -335 162
-335 l87 0 10 -37 c6 -21 100 -398 210 -837 223 -891 211 -858 310 -908 l55
-28 850 0 c524 0 864 4 885 10 52 15 105 56 131 102 15 26 96 332 230 867
l206 826 92 3 c86 3 93 4 121 32 39 40 44 81 39 350 -3 226 -6 240 -52 271
-16 11 -77 15 -247 19 l-227 5 28 91 c16 50 31 112 35 137 l7 46 112 3 111 3
3 113 3 112 -108 1 c-117 0 -118 -1 16 50 46 18 122 58 170 90 l86 57 45 -44
c25 -24 50 -44 56 -44 5 0 43 34 84 75 l74 75 -47 48 c-26 26 -47 51 -47 56 0
4 13 26 29 49 44 65 106 195 129 272 16 55 42 173 42 192 0 2 34 3 75 3 l75 0
0 110 0 109 -77 3 -77 3 -13 65 c-28 138 -85 275 -157 375 -20 27 -36 54 -36
60 0 5 23 33 52 62 l52 53 -74 75 c-41 41 -79 75 -84 75 -6 0 -34 -23 -63 -52
l-52 -51 -54 35 c-116 77 -259 137 -379 159 l-68 12 0 79 0 78 -110 0 -109 0
-3 -77z m209 -308 c269 -26 536 -245 628 -515 107 -313 6 -651 -256 -862 -63
-50 -208 -128 -239 -128 -11 0 -24 26 -44 88 -62 193 -179 376 -330 519 -101
96 -188 156 -317 217 -91 45 -243 96 -282 96 -16 0 -18 5 -12 33 12 53 71 174
119 240 126 178 333 296 551 316 44 4 89 6 100 5 11 -2 48 -6 82 -9z m-912
-800 c386 -68 698 -359 807 -753 18 -64 22 -105 22 -242 0 -182 -16 -268 -74
-397 l-29 -63 -904 0 -904 0 -26 58 c-126 281 -105 635 53 906 216 369 635
564 1055 491z m1275 -1790 l0 -115 -1465 0 -1465 0 0 115 0 115 1465 0 1465 0
0 -115z m-260 -345 c0 -8 -347 -1404 -381 -1533 l-10 -37 -816 2 -817 3 -193
770 c-106 424 -193 778 -193 788 0 16 64 17 1205 17 805 0 1205 -3 1205 -10z"/>
<path d="M3275 4636 c-76 -34 -125 -124 -100 -182 41 -97 146 -94 223 5 51 67
36 148 -33 177 -42 17 -52 17 -90 0z"/>
<path d="M3035 4372 c-11 -2 -32 -13 -48 -24 -121 -86 -98 -238 37 -238 39 0
116 62 136 109 32 79 -43 171 -125 153z"/>
<path d="M3555 4352 c-17 -10 -45 -35 -63 -56 -94 -108 26 -246 147 -167 37
24 81 91 81 123 0 62 -54 118 -112 118 -13 0 -37 -8 -53 -18z"/>
<path d="M3305 4084 c-100 -52 -136 -154 -76 -214 58 -58 113 -52 184 21 40
42 47 55 47 89 0 50 -24 89 -67 106 -41 18 -51 17 -88 -2z"/>
<path d="M3803 4035 c-44 -45 -53 -61 -53 -91 0 -102 104 -152 186 -89 117 89
91 235 -42 235 -33 0 -45 -8 -91 -55z"/>
<path d="M3590 3803 c-47 -25 -100 -96 -100 -136 0 -47 32 -93 74 -107 51 -17
97 1 146 57 34 38 40 53 40 89 0 86 -84 136 -160 97z"/>
<path d="M1764 3626 c-51 -23 -64 -50 -64 -139 0 -56 5 -85 17 -104 32 -48
109 -63 153 -30 37 28 50 61 50 130 0 82 -17 118 -64 141 -41 19 -51 19 -92 2z"/>
<path d="M2305 3626 c-49 -21 -65 -55 -65 -136 0 -105 34 -153 110 -153 74 0
110 48 110 148 0 80 -19 121 -65 141 -42 17 -51 17 -90 0z"/>
<path d="M2842 3623 c-45 -22 -62 -59 -62 -138 0 -93 20 -126 92 -148 29 -10
86 13 108 42 16 23 20 45 20 105 0 88 -15 121 -67 142 -41 18 -50 17 -91 -3z"/>
<path d="M1764 3236 c-52 -23 -64 -50 -64 -142 0 -79 1 -84 31 -113 29 -29 49
-36 94 -33 62 5 95 58 95 152 0 75 -20 117 -65 136 -42 17 -51 17 -91 0z"/>
<path d="M2305 3236 c-49 -21 -65 -55 -65 -136 0 -105 34 -153 110 -153 74 0
110 48 110 148 0 80 -19 121 -65 141 -42 17 -51 17 -90 0z"/>
<path d="M2843 3235 c-44 -19 -63 -61 -63 -140 0 -111 40 -154 137 -147 12 1
35 16 52 33 30 29 31 34 31 113 0 93 -12 120 -66 142 -41 17 -50 17 -91 -1z"/>
<path d="M1731 2849 c-30 -29 -31 -34 -31 -114 0 -75 3 -87 26 -114 32 -39 84
-50 130 -28 50 24 67 66 62 155 -3 69 -6 76 -36 103 -47 42 -108 41 -151 -2z"/>
<path d="M2274 2846 c-33 -33 -34 -36 -34 -115 0 -75 2 -83 29 -113 26 -29 35
-33 81 -33 46 0 55 4 81 33 27 30 29 38 29 113 0 79 -1 82 -34 115 -28 28 -42
34 -76 34 -34 0 -48 -6 -76 -34z"/>
<path d="M2818 2851 c-30 -27 -33 -34 -36 -103 -5 -89 12 -131 62 -155 46 -22
98 -11 130 28 23 27 26 40 26 105 0 42 -5 85 -11 97 -33 64 -116 77 -171 28z"/>
</g>
</svg>
