<?xml version="1.0" standalone="no"?>
<!DOCTYPE svg PUBLIC "-//W3C//DTD SVG 20010904//EN"
 "http://www.w3.org/TR/2001/REC-SVG-20010904/DTD/svg10.dtd">
<svg version="1.0" xmlns="http://www.w3.org/2000/svg"
 width="1080.000000pt" height="1080.000000pt" viewBox="0 0 1080.000000 1080.000000"
 preserveAspectRatio="xMidYMid meet">

<g transform="translate(0.000000,1080.000000) scale(0.100000,-0.100000)"
fill="#000000" stroke="none">
<path d="M5265 8634 c-187 -10 -555 -58 -541 -71 2 -2 65 5 140 17 198 30 412
36 561 16 364 -48 754 -198 1063 -408 267 -183 625 -548 766 -782 20 -33 36
-68 36 -77 0 -9 -20 -30 -44 -45 -45 -28 -104 -107 -149 -199 -42 -86 -76
-212 -111 -425 -41 -242 -62 -316 -114 -396 -61 -94 -145 -151 -269 -184 -125
-33 -183 -23 -202 32 -11 30 -3 433 19 1053 19 527 -9 677 -142 768 -37 24
-50 28 -86 23 -72 -10 -120 -51 -170 -146 -58 -107 -82 -289 -82 -620 -1 -474
-38 -529 -254 -385 -179 119 -269 255 -302 455 -4 25 -8 178 -8 340 -1 289 -2
296 -25 348 -27 59 -58 85 -131 110 -42 14 -57 27 -88 72 -57 81 -90 100 -177
100 -67 0 -74 -2 -112 -35 -88 -75 -99 -249 -21 -332 12 -13 27 -23 34 -23 8
0 21 -15 30 -32 20 -39 21 -124 5 -433 -15 -288 -14 -628 3 -690 19 -71 48
-123 101 -183 108 -120 260 -205 441 -247 221 -52 343 -91 396 -127 15 -10 32
-36 39 -56 17 -59 23 -376 10 -643 -6 -134 -16 -383 -21 -554 -22 -699 -55
-1501 -66 -1613 -5 -60 -8 -65 -37 -77 -50 -20 -211 -53 -332 -66 -60 -7 -215
-13 -344 -13 l-233 -1 -62 67 c-33 36 -86 88 -116 114 -30 26 -138 128 -239
226 -213 207 -310 284 -439 346 -77 37 -105 46 -165 49 -63 4 -76 2 -106 -19
-60 -40 -70 -67 -97 -265 -3 -18 -9 -33 -14 -33 -4 0 -50 34 -102 76 -418 339
-723 786 -888 1299 -105 326 -153 716 -131 1053 30 437 126 789 320 1167 99
194 263 436 380 560 64 68 58 73 -12 11 -37 -33 -112 -110 -166 -170 -477
-532 -746 -1124 -833 -1836 -17 -137 -17 -563 0 -700 108 -885 525 -1640 1207
-2185 109 -87 248 -185 264 -185 6 0 11 -4 11 -9 0 -5 13 -13 28 -19 16 -5 35
-16 43 -24 8 -8 31 -23 52 -34 88 -45 306 -153 347 -172 73 -33 314 -110 413
-132 51 -11 108 -25 128 -30 45 -12 49 -12 49 0 0 6 -12 10 -27 10 -14 0 -23
3 -19 7 4 4 24 7 44 6 26 -1 29 0 10 4 -16 2 -28 9 -28 14 0 5 -7 9 -15 9 -9
0 -15 9 -14 23 0 21 1 21 9 2 7 -16 9 -11 9 21 1 50 -32 100 -48 74 -9 -13
-15 -11 -38 13 -23 23 -25 29 -14 37 21 12 -5 43 -29 35 -12 -4 -25 3 -38 20
-11 14 -25 25 -31 25 -6 0 -11 4 -11 9 0 20 -62 71 -86 71 -21 0 -24 4 -24 40
0 36 -2 40 -25 40 -22 0 -25 4 -25 40 0 35 -3 40 -22 41 l-23 0 23 9 c17 7 21
15 17 32 -9 39 8 51 59 46 26 -3 49 -2 51 3 3 4 -16 10 -42 12 -40 3 -36 4 22
6 39 1 88 9 110 17 62 24 188 55 203 49 7 -3 10 -1 7 4 -3 6 16 12 42 16 76 9
135 22 178 39 31 12 86 15 250 15 116 1 275 6 356 13 133 11 151 10 220 -7 63
-16 108 -18 298 -17 185 2 228 5 242 18 13 11 35 14 95 11 l79 -3 -83 -2 c-52
-1 -81 -6 -77 -12 3 -5 1 -10 -5 -10 -6 0 -9 -4 -5 -10 3 -5 11 -7 18 -5 7 3
26 -8 43 -24 24 -23 43 -31 80 -33 l49 -3 3 -42 c3 -38 6 -43 28 -43 23 0 24
-2 24 -80 0 -75 -1 -80 -21 -80 -23 0 -43 -20 -59 -57 -7 -17 -18 -23 -39 -23
-21 0 -42 -12 -72 -40 -23 -22 -43 -40 -45 -40 -1 0 -4 7 -6 16 -2 13 -11 8
-38 -19 -24 -25 -37 -32 -42 -24 -6 8 -17 2 -38 -20 -16 -18 -36 -33 -44 -33
-16 0 -76 -56 -76 -71 0 -5 -11 -9 -24 -9 -21 0 -24 -5 -28 -45 -2 -33 1 -46
12 -49 8 -2 3 -4 -12 -5 -14 0 -29 5 -32 12 -3 6 -4 -4 -4 -24 l2 -36 40 9
c23 4 59 12 81 18 62 15 76 10 20 -7 -85 -25 -188 -42 -222 -36 -23 3 -33 1
-33 -7 0 -9 -9 -10 -32 -5 -18 4 -58 6 -88 5 -30 0 -148 -1 -262 -1 -120 0
-210 -4 -213 -10 -4 -5 -21 -8 -38 -8 l-32 2 35 6 c19 3 -61 6 -179 6 -228 0
-228 -2 -6 -37 399 -61 987 11 1477 181 88 30 334 145 348 162 3 3 22 12 43
18 20 7 37 16 37 21 0 4 15 13 33 21 17 7 34 15 37 19 7 8 64 44 70 45 3 0 19
10 37 23 17 12 36 22 41 22 6 0 12 4 14 8 2 4 32 28 68 52 36 25 67 48 70 51
3 3 27 23 54 43 173 131 294 245 453 426 355 402 620 940 726 1470 50 247 62
376 61 655 0 269 -11 388 -55 615 -231 1203 -1153 2194 -2331 2504 -309 81
-692 124 -983 110z m2365 -2156 c6 -29 22 -138 36 -243 36 -287 32 -601 -11
-850 -108 -623 -369 -1119 -835 -1586 -151 -151 -269 -246 -395 -318 -129 -74
-114 -150 -111 585 3 594 10 800 36 1109 12 136 29 257 39 273 24 40 275 61
703 62 157 0 294 3 303 6 43 17 76 153 130 537 8 59 21 129 29 155 8 26 22 99
31 162 17 120 25 160 30 160 2 0 9 -24 15 -52z m-3327 -3575 c-13 -2 -33 -2
-45 0 -13 2 -3 4 22 4 25 0 35 -2 23 -4z m-166 -9 c-3 -3 -12 -4 -19 -1 -8 3
-5 6 6 6 11 1 17 -2 13 -5z m136 -11 c-7 -2 -19 -2 -25 0 -7 3 -2 5 12 5 14 0
19 -2 13 -5z m1817 -573 c-12 -8 -10 -10 9 -10 13 0 22 -3 18 -6 -3 -4 -18 -3
-34 0 -21 6 -24 9 -12 17 7 5 19 9 24 9 6 0 3 -5 -5 -10z m-1525 -10 c3 -6 -1
-7 -9 -4 -18 7 -21 14 -7 14 6 0 13 -4 16 -10z m85 0 c8 -5 11 -10 5 -10 -5 0
-17 5 -25 10 -8 5 -10 10 -5 10 6 0 17 -5 25 -10z m1390 -20 c-20 -13 -40 -13
-40 0 0 6 12 10 28 10 21 0 24 -2 12 -10z m-996 -68 c3 -5 -8 -6 -25 -4 -16 2
-29 6 -29 8 0 8 49 4 54 -4z m784 1 c-10 -2 -26 -2 -35 0 -10 3 -2 5 17 5 19
0 27 -2 18 -5z m-695 -10 c-7 -2 -19 -2 -25 0 -7 3 -2 5 12 5 14 0 19 -2 13
-5z"/>
<path d="M4650 8550 c-20 -6 -21 -8 -5 -8 11 0 31 4 45 8 20 6 21 8 5 8 -11 0
-31 -4 -45 -8z"/>
<path d="M4570 8530 c-20 -6 -21 -8 -5 -8 11 0 29 3 40 8 25 11 -1 11 -35 0z"/>
<path d="M4440 8494 l-35 -14 35 6 c40 7 76 24 50 23 -8 0 -31 -7 -50 -15z"/>
<path d="M4310 8450 c-8 -5 -10 -10 -5 -10 6 0 17 5 25 10 8 5 11 10 5 10 -5
0 -17 -5 -25 -10z"/>
<path d="M2988 7207 c-36 -14 -54 -55 -67 -150 -30 -217 3 -502 59 -502 29 0
40 88 38 300 -2 152 0 208 11 233 7 17 17 32 21 32 20 0 39 -34 50 -88 21
-106 84 -246 156 -348 24 -34 51 -80 60 -103 12 -31 22 -41 38 -41 33 0 46 38
46 131 0 93 5 105 66 161 46 43 66 79 103 190 27 80 44 99 69 74 14 -14 17
-50 22 -275 4 -198 8 -262 19 -274 19 -23 38 -21 55 6 12 18 14 68 12 267 -2
214 -5 252 -22 300 -34 95 -126 131 -194 74 -40 -34 -57 -68 -75 -151 -28
-131 -35 -139 -61 -73 -16 39 -49 60 -72 46 -5 -3 -13 -49 -17 -101 -4 -52
-11 -97 -15 -100 -20 -12 -50 43 -80 148 -64 222 -121 284 -222 244z"/>
<path d="M4033 7179 c-37 -11 -79 -61 -94 -110 -5 -19 -16 -72 -24 -119 -9
-46 -38 -145 -66 -220 -43 -114 -50 -140 -43 -169 5 -19 17 -39 26 -45 53 -32
133 151 168 384 13 84 43 155 71 171 28 14 39 -23 39 -126 0 -85 -12 -115 -45
-115 -21 0 -27 -53 -7 -68 47 -35 49 -39 55 -125 6 -91 18 -127 42 -127 33 0
40 41 43 280 3 219 2 239 -17 291 -33 88 -79 118 -148 98z"/>
<path d="M4379 7175 c-52 -28 -62 -58 -71 -215 -13 -231 2 -408 39 -445 15
-15 17 -15 32 0 14 14 16 50 16 268 0 226 2 256 18 280 27 41 52 21 98 -81 68
-149 82 -174 118 -201 86 -64 91 -73 91 -149 0 -118 29 -163 67 -105 16 24 18
56 18 308 0 154 -3 292 -8 308 -6 22 -13 27 -37 27 -42 0 -51 -28 -59 -184 -4
-87 -10 -131 -18 -133 -13 -5 -79 120 -115 215 -29 78 -74 122 -124 122 -22
-1 -51 -7 -65 -15z"/>
<path d="M3826 6338 c-28 -42 -36 -132 -36 -388 0 -302 -5 -290 113 -290 189
0 318 73 384 217 19 41 25 71 26 131 2 215 -123 322 -402 348 -66 6 -70 6 -85
-18z m242 -99 c77 -38 133 -135 135 -235 1 -78 -34 -142 -101 -185 -76 -48
-167 -64 -192 -34 -16 19 -9 376 9 420 24 60 72 71 149 34z"/>
<path d="M4615 6316 c-62 -28 -84 -72 -113 -226 -11 -58 -41 -158 -66 -223
-48 -124 -55 -169 -31 -200 49 -66 137 97 174 323 23 137 54 213 88 218 18 3
21 -4 27 -63 4 -36 4 -88 0 -115 -6 -42 -11 -51 -30 -56 -15 -4 -27 -16 -31
-32 -5 -20 0 -30 27 -52 30 -25 33 -32 41 -116 5 -49 12 -97 15 -106 9 -30 40
-21 55 15 19 45 20 473 1 535 -26 86 -93 128 -157 98z"/>
<path d="M3223 5566 c-91 -29 -176 -107 -221 -204 -23 -48 -27 -71 -27 -142 1
-104 24 -160 100 -235 67 -68 129 -97 220 -103 91 -6 162 14 242 68 107 71
158 170 208 401 10 49 23 83 36 95 20 18 21 18 40 -5 15 -18 19 -39 19 -93 0
-72 -15 -116 -48 -140 -36 -26 -35 -38 8 -78 39 -36 41 -41 46 -111 3 -41 7
-84 10 -95 5 -29 34 -39 53 -19 13 13 17 53 19 243 3 148 0 245 -8 280 -22
100 -115 161 -190 124 -45 -22 -61 -56 -101 -217 -47 -193 -92 -270 -184 -317
-49 -26 -158 -35 -208 -19 -50 17 -112 82 -131 138 -42 121 2 231 115 288 61
31 146 33 242 6 79 -23 97 -19 97 18 0 40 -37 69 -131 102 -91 31 -141 35
-206 15z"/>
<path d="M3886 4787 c-22 -12 -49 -35 -60 -50 -20 -27 -21 -40 -21 -302 0
-254 1 -274 19 -294 26 -29 54 -27 66 5 6 14 14 95 19 180 4 85 12 159 17 163
5 5 39 11 76 13 61 4 71 7 103 38 63 61 66 142 8 211 -52 62 -154 78 -227 36z
m139 -110 c20 -29 19 -54 -4 -67 -64 -34 -121 30 -72 79 23 23 55 18 76 -12z"/>
<path d="M4302 4767 c-22 -26 -32 -110 -33 -279 -1 -198 7 -243 57 -297 75
-84 213 -105 320 -50 81 41 95 79 106 273 11 186 7 260 -16 305 -14 26 -22 32
-44 29 -37 -4 -40 -23 -41 -241 -1 -211 -9 -244 -63 -277 -67 -40 -181 -20
-207 37 -19 42 -31 153 -31 298 0 177 -16 241 -48 202z"/>
<path d="M3993 4403 c-34 -13 5 -125 68 -198 36 -41 84 -69 105 -61 39 15 -7
136 -83 215 -47 49 -62 56 -90 44z"/>
<path d="M6311 2984 c0 -11 3 -14 6 -6 3 7 2 16 -1 19 -3 4 -6 -2 -5 -13z"/>
<path d="M6400 2945 c0 -11 11 -15 40 -15 29 0 40 4 40 15 0 11 -11 15 -40 15
-29 0 -40 -4 -40 -15z"/>
<path d="M4598 2933 c7 -3 16 -2 19 1 4 3 -2 6 -13 5 -11 0 -14 -3 -6 -6z"/>
<path d="M4550 2920 c0 -5 7 -7 15 -4 8 4 15 8 15 10 0 2 -7 4 -15 4 -8 0 -15
-4 -15 -10z"/>
<path d="M4508 2903 c6 -2 18 -2 25 0 6 3 1 5 -13 5 -14 0 -19 -2 -12 -5z"/>
<path d="M4460 2890 c34 -11 60 -11 35 0 -11 5 -29 8 -40 8 -16 0 -15 -2 5 -8z"/>
<path d="M4563 2893 c9 -2 25 -2 35 0 9 3 1 5 -18 5 -19 0 -27 -2 -17 -5z"/>
<path d="M6460 2870 c0 -5 5 -10 10 -10 6 0 10 5 10 10 0 6 -4 10 -10 10 -5 0
-10 -4 -10 -10z"/>
<path d="M4818 2233 c7 -3 16 -2 19 1 4 3 -2 6 -13 5 -11 0 -14 -3 -6 -6z"/>
<path d="M5078 2233 c7 -3 16 -2 19 1 4 3 -2 6 -13 5 -11 0 -14 -3 -6 -6z"/>
</g>
</svg>
